<?xml version="1.0" encoding="utf-8" standalone="no"?>
<!DOCTYPE svg PUBLIC "-//W3C//DTD SVG 1.1//EN"
  "http://www.w3.org/Graphics/SVG/1.1/DTD/svg11.dtd">
<svg xmlns:xlink="http://www.w3.org/1999/xlink" width="233.092pt" height="295.87632pt" viewBox="0 0 233.092 295.87632" xmlns="http://www.w3.org/2000/svg" version="1.1">
 <metadata>
  <rdf:RDF xmlns:dc="http://purl.org/dc/elements/1.1/" xmlns:cc="http://creativecommons.org/ns#" xmlns:rdf="http://www.w3.org/1999/02/22-rdf-syntax-ns#">
   <cc:Work>
    <dc:type rdf:resource="http://purl.org/dc/dcmitype/StillImage"/>
    <dc:date>2026-07-15T11:05:56.690448</dc:date>
    <dc:format>image/svg+xml</dc:format>
    <dc:creator>
     <cc:Agent>
      <dc:title>Matplotlib v3.9.3, https://matplotlib.org/</dc:title>
     </cc:Agent>
    </dc:creator>
   </cc:Work>
  </rdf:RDF>
 </metadata>
 <defs>
  <style type="text/css">*{stroke-linejoin: round; stroke-linecap: butt}</style>
 </defs>
 <g id="figure_1">
  <g id="patch_1">
   <path d="M 0 295.87632 
L 233.092 295.87632 
L 233.092 0 
L 0 0 
z
" style="fill: #ffffff"/>
  </g>
  <g id="axes_1">
   <g id="patch_2">
    <path d="M 66.7 250.18592 
L 225.892 250.18592 
L 225.892 16.90592 
L 66.7 16.90592 
z
" style="fill: #ffffff"/>
   </g>
   <g id="line2d_1">
    <path d="M 66.7 76.181986 
L 225.892 76.181986 
" clip-path="url(#pfc9d12aca4)" style="fill: none; stroke: #c8d1d5; stroke-width: 0.7; stroke-linecap: square"/>
   </g>
   <g id="line2d_2">
    <path d="M 66.7 133.54592 
L 225.892 133.54592 
" clip-path="url(#pfc9d12aca4)" style="fill: none; stroke: #c8d1d5; stroke-width: 0.7; stroke-linecap: square"/>
   </g>
   <g id="line2d_3">
    <path d="M 66.7 190.909854 
L 225.892 190.909854 
" clip-path="url(#pfc9d12aca4)" style="fill: none; stroke: #c8d1d5; stroke-width: 0.7; stroke-linecap: square"/>
   </g>
   <g id="line2d_4">
    <path d="M 165.960894 250.18592 
L 165.960894 16.90592 
" clip-path="url(#pfc9d12aca4)" style="fill: none; stroke: #202a33; stroke-linecap: square"/>
   </g>
   <g id="matplotlib.axis_1">
    <g id="xtick_1">
     <g id="line2d_5">
      <path d="M 72.318541 250.18592 
L 72.318541 16.90592 
" clip-path="url(#pfc9d12aca4)" style="fill: none; stroke: #dce4e7; stroke-width: 0.65; stroke-linecap: square"/>
     </g>
     <g id="line2d_6">
      <defs>
       <path id="m015bf9ae43" d="M 0 0 
L 0 3 
" style="stroke: #89959b; stroke-width: 0.8"/>
      </defs>
      <g>
       <use xlink:href="#m015bf9ae43" x="72.318541" y="250.18592" style="fill: #89959b; stroke: #89959b; stroke-width: 0.8"/>
      </g>
     </g>
     <g id="text_1">
      <!-- −2 -->
      <g transform="translate(68.328893 261.893732) scale(0.075 -0.075)">
       <defs>
        <path id="TimesNewRomanPSMT-2212" d="M 3484 2000 
L 116 2000 
L 116 2256 
L 3484 2256 
L 3484 2000 
z
" transform="scale(0.015625)"/>
        <path id="TimesNewRomanPSMT-32" d="M 2934 816 
L 2638 0 
L 138 0 
L 138 116 
Q 1241 1122 1691 1759 
Q 2141 2397 2141 2925 
Q 2141 3328 1894 3587 
Q 1647 3847 1303 3847 
Q 991 3847 742 3664 
Q 494 3481 375 3128 
L 259 3128 
Q 338 3706 661 4015 
Q 984 4325 1469 4325 
Q 1984 4325 2329 3994 
Q 2675 3663 2675 3213 
Q 2675 2891 2525 2569 
Q 2294 2063 1775 1497 
Q 997 647 803 472 
L 1909 472 
Q 2247 472 2383 497 
Q 2519 522 2628 598 
Q 2738 675 2819 816 
L 2934 816 
z
" transform="scale(0.015625)"/>
       </defs>
       <use xlink:href="#TimesNewRomanPSMT-2212"/>
       <use xlink:href="#TimesNewRomanPSMT-32" x="56.396484"/>
      </g>
     </g>
    </g>
    <g id="xtick_2">
     <g id="line2d_7">
      <path d="M 119.139718 250.18592 
L 119.139718 16.90592 
" clip-path="url(#pfc9d12aca4)" style="fill: none; stroke: #dce4e7; stroke-width: 0.65; stroke-linecap: square"/>
     </g>
     <g id="line2d_8">
      <g>
       <use xlink:href="#m015bf9ae43" x="119.139718" y="250.18592" style="fill: #89959b; stroke: #89959b; stroke-width: 0.8"/>
      </g>
     </g>
     <g id="text_2">
      <!-- −1 -->
      <g transform="translate(115.150069 261.893732) scale(0.075 -0.075)">
       <defs>
        <path id="TimesNewRomanPSMT-31" d="M 750 3822 
L 1781 4325 
L 1884 4325 
L 1884 747 
Q 1884 391 1914 303 
Q 1944 216 2037 169 
Q 2131 122 2419 116 
L 2419 0 
L 825 0 
L 825 116 
Q 1125 122 1212 167 
Q 1300 213 1334 289 
Q 1369 366 1369 747 
L 1369 3034 
Q 1369 3497 1338 3628 
Q 1316 3728 1258 3775 
Q 1200 3822 1119 3822 
Q 1003 3822 797 3725 
L 750 3822 
z
" transform="scale(0.015625)"/>
       </defs>
       <use xlink:href="#TimesNewRomanPSMT-2212"/>
       <use xlink:href="#TimesNewRomanPSMT-31" x="56.396484"/>
      </g>
     </g>
    </g>
    <g id="xtick_3">
     <g id="line2d_9">
      <path d="M 165.960894 250.18592 
L 165.960894 16.90592 
" clip-path="url(#pfc9d12aca4)" style="fill: none; stroke: #dce4e7; stroke-width: 0.65; stroke-linecap: square"/>
     </g>
     <g id="line2d_10">
      <g>
       <use xlink:href="#m015bf9ae43" x="165.960894" y="250.18592" style="fill: #89959b; stroke: #89959b; stroke-width: 0.8"/>
      </g>
     </g>
     <g id="text_3">
      <!-- 0 -->
      <g transform="translate(164.085894 261.893732) scale(0.075 -0.075)">
       <defs>
        <path id="TimesNewRomanPSMT-30" d="M 231 2094 
Q 231 2819 450 3342 
Q 669 3866 1031 4122 
Q 1313 4325 1613 4325 
Q 2100 4325 2488 3828 
Q 2972 3213 2972 2159 
Q 2972 1422 2759 906 
Q 2547 391 2217 158 
Q 1888 -75 1581 -75 
Q 975 -75 572 641 
Q 231 1244 231 2094 
z
M 844 2016 
Q 844 1141 1059 588 
Q 1238 122 1591 122 
Q 1759 122 1940 273 
Q 2122 425 2216 781 
Q 2359 1319 2359 2297 
Q 2359 3022 2209 3506 
Q 2097 3866 1919 4016 
Q 1791 4119 1609 4119 
Q 1397 4119 1231 3928 
Q 1006 3669 925 3112 
Q 844 2556 844 2016 
z
" transform="scale(0.015625)"/>
       </defs>
       <use xlink:href="#TimesNewRomanPSMT-30"/>
      </g>
     </g>
    </g>
    <g id="xtick_4">
     <g id="line2d_11">
      <path d="M 212.782071 250.18592 
L 212.782071 16.90592 
" clip-path="url(#pfc9d12aca4)" style="fill: none; stroke: #dce4e7; stroke-width: 0.65; stroke-linecap: square"/>
     </g>
     <g id="line2d_12">
      <g>
       <use xlink:href="#m015bf9ae43" x="212.782071" y="250.18592" style="fill: #89959b; stroke: #89959b; stroke-width: 0.8"/>
      </g>
     </g>
     <g id="text_4">
      <!-- 1 -->
      <g transform="translate(210.907071 261.893732) scale(0.075 -0.075)">
       <use xlink:href="#TimesNewRomanPSMT-31"/>
      </g>
     </g>
    </g>
    <g id="text_5">
     <!-- Paired $\Delta$ vs. same-instance control -->
     <g transform="translate(87.306 273.400217) scale(0.085 -0.085)">
      <defs>
       <path id="TimesNewRomanPSMT-50" d="M 1313 1984 
L 1313 750 
Q 1313 350 1400 253 
Q 1519 116 1759 116 
L 1922 116 
L 1922 0 
L 106 0 
L 106 116 
L 266 116 
Q 534 116 650 291 
Q 713 388 713 750 
L 713 3488 
Q 713 3888 628 3984 
Q 506 4122 266 4122 
L 106 4122 
L 106 4238 
L 1659 4238 
Q 2228 4238 2556 4120 
Q 2884 4003 3109 3725 
Q 3334 3447 3334 3066 
Q 3334 2547 2992 2222 
Q 2650 1897 2025 1897 
Q 1872 1897 1694 1919 
Q 1516 1941 1313 1984 
z
M 1313 2163 
Q 1478 2131 1606 2115 
Q 1734 2100 1825 2100 
Q 2150 2100 2386 2351 
Q 2622 2603 2622 3003 
Q 2622 3278 2509 3514 
Q 2397 3750 2190 3867 
Q 1984 3984 1722 3984 
Q 1563 3984 1313 3925 
L 1313 2163 
z
" transform="scale(0.015625)"/>
       <path id="TimesNewRomanPSMT-61" d="M 1822 413 
Q 1381 72 1269 19 
Q 1100 -59 909 -59 
Q 613 -59 420 144 
Q 228 347 228 678 
Q 228 888 322 1041 
Q 450 1253 767 1440 
Q 1084 1628 1822 1897 
L 1822 2009 
Q 1822 2438 1686 2597 
Q 1550 2756 1291 2756 
Q 1094 2756 978 2650 
Q 859 2544 859 2406 
L 866 2225 
Q 866 2081 792 2003 
Q 719 1925 600 1925 
Q 484 1925 411 2006 
Q 338 2088 338 2228 
Q 338 2497 613 2722 
Q 888 2947 1384 2947 
Q 1766 2947 2009 2819 
Q 2194 2722 2281 2516 
Q 2338 2381 2338 1966 
L 2338 994 
Q 2338 584 2353 492 
Q 2369 400 2405 369 
Q 2441 338 2488 338 
Q 2538 338 2575 359 
Q 2641 400 2828 588 
L 2828 413 
Q 2478 -56 2159 -56 
Q 2006 -56 1915 50 
Q 1825 156 1822 413 
z
M 1822 616 
L 1822 1706 
Q 1350 1519 1213 1441 
Q 966 1303 859 1153 
Q 753 1003 753 825 
Q 753 600 887 451 
Q 1022 303 1197 303 
Q 1434 303 1822 616 
z
" transform="scale(0.015625)"/>
       <path id="TimesNewRomanPSMT-69" d="M 928 4444 
Q 1059 4444 1151 4351 
Q 1244 4259 1244 4128 
Q 1244 3997 1151 3903 
Q 1059 3809 928 3809 
Q 797 3809 703 3903 
Q 609 3997 609 4128 
Q 609 4259 701 4351 
Q 794 4444 928 4444 
z
M 1188 2947 
L 1188 647 
Q 1188 378 1227 289 
Q 1266 200 1342 156 
Q 1419 113 1622 113 
L 1622 0 
L 231 0 
L 231 113 
Q 441 113 512 153 
Q 584 194 626 287 
Q 669 381 669 647 
L 669 1750 
Q 669 2216 641 2353 
Q 619 2453 572 2492 
Q 525 2531 444 2531 
Q 356 2531 231 2484 
L 188 2597 
L 1050 2947 
L 1188 2947 
z
" transform="scale(0.015625)"/>
       <path id="TimesNewRomanPSMT-72" d="M 1038 2947 
L 1038 2303 
Q 1397 2947 1775 2947 
Q 1947 2947 2059 2842 
Q 2172 2738 2172 2600 
Q 2172 2478 2090 2393 
Q 2009 2309 1897 2309 
Q 1788 2309 1652 2417 
Q 1516 2525 1450 2525 
Q 1394 2525 1328 2463 
Q 1188 2334 1038 2041 
L 1038 669 
Q 1038 431 1097 309 
Q 1138 225 1241 169 
Q 1344 113 1538 113 
L 1538 0 
L 72 0 
L 72 113 
Q 291 113 397 181 
Q 475 231 506 341 
Q 522 394 522 644 
L 522 1753 
Q 522 2253 501 2348 
Q 481 2444 426 2487 
Q 372 2531 291 2531 
Q 194 2531 72 2484 
L 41 2597 
L 906 2947 
L 1038 2947 
z
" transform="scale(0.015625)"/>
       <path id="TimesNewRomanPSMT-65" d="M 681 1784 
Q 678 1147 991 784 
Q 1303 422 1725 422 
Q 2006 422 2214 576 
Q 2422 731 2563 1106 
L 2659 1044 
Q 2594 616 2278 264 
Q 1963 -88 1488 -88 
Q 972 -88 605 314 
Q 238 716 238 1394 
Q 238 2128 614 2539 
Q 991 2950 1559 2950 
Q 2041 2950 2350 2633 
Q 2659 2316 2659 1784 
L 681 1784 
z
M 681 1966 
L 2006 1966 
Q 1991 2241 1941 2353 
Q 1863 2528 1708 2628 
Q 1553 2728 1384 2728 
Q 1125 2728 920 2526 
Q 716 2325 681 1966 
z
" transform="scale(0.015625)"/>
       <path id="TimesNewRomanPSMT-64" d="M 2222 322 
Q 2013 103 1813 7 
Q 1613 -88 1381 -88 
Q 913 -88 563 304 
Q 213 697 213 1313 
Q 213 1928 600 2439 
Q 988 2950 1597 2950 
Q 1975 2950 2222 2709 
L 2222 3238 
Q 2222 3728 2198 3840 
Q 2175 3953 2125 3993 
Q 2075 4034 2000 4034 
Q 1919 4034 1784 3984 
L 1744 4094 
L 2597 4444 
L 2738 4444 
L 2738 1134 
Q 2738 631 2761 520 
Q 2784 409 2836 365 
Q 2888 322 2956 322 
Q 3041 322 3181 375 
L 3216 266 
L 2366 -88 
L 2222 -88 
L 2222 322 
z
M 2222 541 
L 2222 2016 
Q 2203 2228 2109 2403 
Q 2016 2578 1861 2667 
Q 1706 2756 1559 2756 
Q 1284 2756 1069 2509 
Q 784 2184 784 1559 
Q 784 928 1059 592 
Q 1334 256 1672 256 
Q 1956 256 2222 541 
z
" transform="scale(0.015625)"/>
       <path id="TimesNewRomanPSMT-20" transform="scale(0.015625)"/>
       <path id="DejaVuSans-394" d="M 2188 4044 
L 906 525 
L 3472 525 
L 2188 4044 
z
M 50 0 
L 1831 4666 
L 2547 4666 
L 4325 0 
L 50 0 
z
" transform="scale(0.015625)"/>
       <path id="TimesNewRomanPSMT-76" d="M 53 2863 
L 1400 2863 
L 1400 2747 
L 1313 2747 
Q 1191 2747 1127 2687 
Q 1063 2628 1063 2528 
Q 1063 2419 1128 2269 
L 1794 688 
L 2463 2328 
Q 2534 2503 2534 2594 
Q 2534 2638 2509 2666 
Q 2475 2713 2422 2730 
Q 2369 2747 2206 2747 
L 2206 2863 
L 3141 2863 
L 3141 2747 
Q 2978 2734 2916 2681 
Q 2806 2588 2719 2369 
L 1703 -88 
L 1575 -88 
L 553 2328 
Q 484 2497 421 2570 
Q 359 2644 263 2694 
Q 209 2722 53 2747 
L 53 2863 
z
" transform="scale(0.015625)"/>
       <path id="TimesNewRomanPSMT-73" d="M 2050 2947 
L 2050 1972 
L 1947 1972 
Q 1828 2431 1642 2597 
Q 1456 2763 1169 2763 
Q 950 2763 815 2647 
Q 681 2531 681 2391 
Q 681 2216 781 2091 
Q 878 1963 1175 1819 
L 1631 1597 
Q 2266 1288 2266 781 
Q 2266 391 1970 151 
Q 1675 -88 1309 -88 
Q 1047 -88 709 6 
Q 606 38 541 38 
Q 469 38 428 -44 
L 325 -44 
L 325 978 
L 428 978 
Q 516 541 762 319 
Q 1009 97 1316 97 
Q 1531 97 1667 223 
Q 1803 350 1803 528 
Q 1803 744 1651 891 
Q 1500 1038 1047 1263 
Q 594 1488 453 1669 
Q 313 1847 313 2119 
Q 313 2472 555 2709 
Q 797 2947 1181 2947 
Q 1350 2947 1591 2875 
Q 1750 2828 1803 2828 
Q 1853 2828 1881 2850 
Q 1909 2872 1947 2947 
L 2050 2947 
z
" transform="scale(0.015625)"/>
       <path id="TimesNewRomanPSMT-2e" d="M 800 606 
Q 947 606 1047 504 
Q 1147 403 1147 259 
Q 1147 116 1045 14 
Q 944 -88 800 -88 
Q 656 -88 554 14 
Q 453 116 453 259 
Q 453 406 554 506 
Q 656 606 800 606 
z
" transform="scale(0.015625)"/>
       <path id="TimesNewRomanPSMT-6d" d="M 1050 2338 
Q 1363 2650 1419 2697 
Q 1559 2816 1721 2881 
Q 1884 2947 2044 2947 
Q 2313 2947 2506 2790 
Q 2700 2634 2766 2338 
Q 3088 2713 3309 2830 
Q 3531 2947 3766 2947 
Q 3994 2947 4170 2830 
Q 4347 2713 4450 2447 
Q 4519 2266 4519 1878 
L 4519 647 
Q 4519 378 4559 278 
Q 4591 209 4675 161 
Q 4759 113 4950 113 
L 4950 0 
L 3538 0 
L 3538 113 
L 3597 113 
Q 3781 113 3884 184 
Q 3956 234 3988 344 
Q 4000 397 4000 647 
L 4000 1878 
Q 4000 2228 3916 2372 
Q 3794 2572 3525 2572 
Q 3359 2572 3192 2489 
Q 3025 2406 2788 2181 
L 2781 2147 
L 2788 2013 
L 2788 647 
Q 2788 353 2820 281 
Q 2853 209 2943 161 
Q 3034 113 3253 113 
L 3253 0 
L 1806 0 
L 1806 113 
Q 2044 113 2133 169 
Q 2222 225 2256 338 
Q 2272 391 2272 647 
L 2272 1878 
Q 2272 2228 2169 2381 
Q 2031 2581 1784 2581 
Q 1616 2581 1450 2491 
Q 1191 2353 1050 2181 
L 1050 647 
Q 1050 366 1089 281 
Q 1128 197 1204 155 
Q 1281 113 1516 113 
L 1516 0 
L 100 0 
L 100 113 
Q 297 113 375 155 
Q 453 197 493 289 
Q 534 381 534 647 
L 534 1741 
Q 534 2213 506 2350 
Q 484 2453 437 2492 
Q 391 2531 309 2531 
Q 222 2531 100 2484 
L 53 2597 
L 916 2947 
L 1050 2947 
L 1050 2338 
z
" transform="scale(0.015625)"/>
       <path id="TimesNewRomanPSMT-2d" d="M 259 1672 
L 1875 1672 
L 1875 1200 
L 259 1200 
L 259 1672 
z
" transform="scale(0.015625)"/>
       <path id="TimesNewRomanPSMT-6e" d="M 1034 2341 
Q 1538 2947 1994 2947 
Q 2228 2947 2397 2830 
Q 2566 2713 2666 2444 
Q 2734 2256 2734 1869 
L 2734 647 
Q 2734 375 2778 278 
Q 2813 200 2889 156 
Q 2966 113 3172 113 
L 3172 0 
L 1756 0 
L 1756 113 
L 1816 113 
Q 2016 113 2095 173 
Q 2175 234 2206 353 
Q 2219 400 2219 647 
L 2219 1819 
Q 2219 2209 2117 2386 
Q 2016 2563 1775 2563 
Q 1403 2563 1034 2156 
L 1034 647 
Q 1034 356 1069 288 
Q 1113 197 1189 155 
Q 1266 113 1500 113 
L 1500 0 
L 84 0 
L 84 113 
L 147 113 
Q 366 113 442 223 
Q 519 334 519 647 
L 519 1709 
Q 519 2225 495 2337 
Q 472 2450 423 2490 
Q 375 2531 294 2531 
Q 206 2531 84 2484 
L 38 2597 
L 900 2947 
L 1034 2947 
L 1034 2341 
z
" transform="scale(0.015625)"/>
       <path id="TimesNewRomanPSMT-74" d="M 1031 3803 
L 1031 2863 
L 1700 2863 
L 1700 2644 
L 1031 2644 
L 1031 788 
Q 1031 509 1111 412 
Q 1191 316 1316 316 
Q 1419 316 1516 380 
Q 1613 444 1666 569 
L 1788 569 
Q 1678 263 1478 108 
Q 1278 -47 1066 -47 
Q 922 -47 784 33 
Q 647 113 581 261 
Q 516 409 516 719 
L 516 2644 
L 63 2644 
L 63 2747 
Q 234 2816 414 2980 
Q 594 3144 734 3369 
Q 806 3488 934 3803 
L 1031 3803 
z
" transform="scale(0.015625)"/>
       <path id="TimesNewRomanPSMT-63" d="M 2631 1088 
Q 2516 522 2178 217 
Q 1841 -88 1431 -88 
Q 944 -88 581 321 
Q 219 731 219 1428 
Q 219 2103 620 2525 
Q 1022 2947 1584 2947 
Q 2006 2947 2278 2723 
Q 2550 2500 2550 2259 
Q 2550 2141 2473 2067 
Q 2397 1994 2259 1994 
Q 2075 1994 1981 2113 
Q 1928 2178 1911 2362 
Q 1894 2547 1784 2644 
Q 1675 2738 1481 2738 
Q 1169 2738 978 2506 
Q 725 2200 725 1697 
Q 725 1184 976 792 
Q 1228 400 1656 400 
Q 1963 400 2206 609 
Q 2378 753 2541 1131 
L 2631 1088 
z
" transform="scale(0.015625)"/>
       <path id="TimesNewRomanPSMT-6f" d="M 1600 2947 
Q 2250 2947 2644 2453 
Q 2978 2031 2978 1484 
Q 2978 1100 2793 706 
Q 2609 313 2286 112 
Q 1963 -88 1566 -88 
Q 919 -88 538 428 
Q 216 863 216 1403 
Q 216 1797 411 2186 
Q 606 2575 925 2761 
Q 1244 2947 1600 2947 
z
M 1503 2744 
Q 1338 2744 1170 2645 
Q 1003 2547 900 2300 
Q 797 2053 797 1666 
Q 797 1041 1045 587 
Q 1294 134 1700 134 
Q 2003 134 2200 384 
Q 2397 634 2397 1244 
Q 2397 2006 2069 2444 
Q 1847 2744 1503 2744 
z
" transform="scale(0.015625)"/>
       <path id="TimesNewRomanPSMT-6c" d="M 1184 4444 
L 1184 647 
Q 1184 378 1223 290 
Q 1263 203 1344 158 
Q 1425 113 1647 113 
L 1647 0 
L 244 0 
L 244 113 
Q 441 113 512 153 
Q 584 194 625 287 
Q 666 381 666 647 
L 666 3247 
Q 666 3731 644 3842 
Q 622 3953 573 3993 
Q 525 4034 450 4034 
Q 369 4034 244 3984 
L 191 4094 
L 1044 4444 
L 1184 4444 
z
" transform="scale(0.015625)"/>
      </defs>
      <use xlink:href="#TimesNewRomanPSMT-50" transform="translate(0 0.09375)"/>
      <use xlink:href="#TimesNewRomanPSMT-61" transform="translate(55.615234 0.09375)"/>
      <use xlink:href="#TimesNewRomanPSMT-69" transform="translate(100 0.09375)"/>
      <use xlink:href="#TimesNewRomanPSMT-72" transform="translate(127.783203 0.09375)"/>
      <use xlink:href="#TimesNewRomanPSMT-65" transform="translate(161.083984 0.09375)"/>
      <use xlink:href="#TimesNewRomanPSMT-64" transform="translate(205.46875 0.09375)"/>
      <use xlink:href="#TimesNewRomanPSMT-20" transform="translate(255.46875 0.09375)"/>
      <use xlink:href="#DejaVuSans-394" transform="translate(280.46875 0.09375)"/>
      <use xlink:href="#TimesNewRomanPSMT-20" transform="translate(348.876953 0.09375)"/>
      <use xlink:href="#TimesNewRomanPSMT-76" transform="translate(373.876953 0.09375)"/>
      <use xlink:href="#TimesNewRomanPSMT-73" transform="translate(423.876953 0.09375)"/>
      <use xlink:href="#TimesNewRomanPSMT-2e" transform="translate(462.792969 0.09375)"/>
      <use xlink:href="#TimesNewRomanPSMT-20" transform="translate(487.792969 0.09375)"/>
      <use xlink:href="#TimesNewRomanPSMT-73" transform="translate(512.792969 0.09375)"/>
      <use xlink:href="#TimesNewRomanPSMT-61" transform="translate(551.708984 0.09375)"/>
      <use xlink:href="#TimesNewRomanPSMT-6d" transform="translate(596.09375 0.09375)"/>
      <use xlink:href="#TimesNewRomanPSMT-65" transform="translate(673.876953 0.09375)"/>
      <use xlink:href="#TimesNewRomanPSMT-2d" transform="translate(718.261719 0.09375)"/>
      <use xlink:href="#TimesNewRomanPSMT-69" transform="translate(751.5625 0.09375)"/>
      <use xlink:href="#TimesNewRomanPSMT-6e" transform="translate(779.345703 0.09375)"/>
      <use xlink:href="#TimesNewRomanPSMT-73" transform="translate(829.345703 0.09375)"/>
      <use xlink:href="#TimesNewRomanPSMT-74" transform="translate(868.261719 0.09375)"/>
      <use xlink:href="#TimesNewRomanPSMT-61" transform="translate(896.044922 0.09375)"/>
      <use xlink:href="#TimesNewRomanPSMT-6e" transform="translate(940.429688 0.09375)"/>
      <use xlink:href="#TimesNewRomanPSMT-63" transform="translate(990.429688 0.09375)"/>
      <use xlink:href="#TimesNewRomanPSMT-65" transform="translate(1034.814453 0.09375)"/>
      <use xlink:href="#TimesNewRomanPSMT-20" transform="translate(1079.199219 0.09375)"/>
      <use xlink:href="#TimesNewRomanPSMT-63" transform="translate(1104.199219 0.09375)"/>
      <use xlink:href="#TimesNewRomanPSMT-6f" transform="translate(1148.583984 0.09375)"/>
      <use xlink:href="#TimesNewRomanPSMT-6e" transform="translate(1198.583984 0.09375)"/>
      <use xlink:href="#TimesNewRomanPSMT-74" transform="translate(1248.583984 0.09375)"/>
      <use xlink:href="#TimesNewRomanPSMT-72" transform="translate(1276.367188 0.09375)"/>
      <use xlink:href="#TimesNewRomanPSMT-6f" transform="translate(1309.667969 0.09375)"/>
      <use xlink:href="#TimesNewRomanPSMT-6c" transform="translate(1359.667969 0.09375)"/>
     </g>
    </g>
   </g>
   <g id="matplotlib.axis_2">
    <g id="ytick_1">
     <g id="line2d_13"/>
     <g id="text_6">
      <!-- EDIT $\rightarrow$ LOC -->
      <g transform="translate(17.625 30.982613) scale(0.075 -0.075)">
       <defs>
        <path id="TimesNewRomanPSMT-45" d="M 1338 4006 
L 1338 2331 
L 2269 2331 
Q 2631 2331 2753 2441 
Q 2916 2584 2934 2947 
L 3050 2947 
L 3050 1472 
L 2934 1472 
Q 2891 1781 2847 1869 
Q 2791 1978 2662 2040 
Q 2534 2103 2269 2103 
L 1338 2103 
L 1338 706 
Q 1338 425 1363 364 
Q 1388 303 1450 267 
Q 1513 231 1688 231 
L 2406 231 
Q 2766 231 2928 281 
Q 3091 331 3241 478 
Q 3434 672 3638 1063 
L 3763 1063 
L 3397 0 
L 131 0 
L 131 116 
L 281 116 
Q 431 116 566 188 
Q 666 238 702 338 
Q 738 438 738 747 
L 738 3500 
Q 738 3903 656 3997 
Q 544 4122 281 4122 
L 131 4122 
L 131 4238 
L 3397 4238 
L 3444 3309 
L 3322 3309 
Q 3256 3644 3176 3769 
Q 3097 3894 2941 3959 
Q 2816 4006 2500 4006 
L 1338 4006 
z
" transform="scale(0.015625)"/>
        <path id="TimesNewRomanPSMT-44" d="M 109 0 
L 109 116 
L 269 116 
Q 538 116 650 288 
Q 719 391 719 750 
L 719 3488 
Q 719 3884 631 3984 
Q 509 4122 269 4122 
L 109 4122 
L 109 4238 
L 1834 4238 
Q 2784 4238 3279 4022 
Q 3775 3806 4076 3303 
Q 4378 2800 4378 2141 
Q 4378 1256 3841 663 
Q 3238 0 2003 0 
L 109 0 
z
M 1319 306 
Q 1716 219 1984 219 
Q 2709 219 3187 728 
Q 3666 1238 3666 2109 
Q 3666 2988 3187 3494 
Q 2709 4000 1959 4000 
Q 1678 4000 1319 3909 
L 1319 306 
z
" transform="scale(0.015625)"/>
        <path id="TimesNewRomanPSMT-49" d="M 1975 116 
L 1975 0 
L 159 0 
L 159 116 
L 309 116 
Q 572 116 691 269 
Q 766 369 766 750 
L 766 3488 
Q 766 3809 725 3913 
Q 694 3991 597 4047 
Q 459 4122 309 4122 
L 159 4122 
L 159 4238 
L 1975 4238 
L 1975 4122 
L 1822 4122 
Q 1563 4122 1444 3969 
Q 1366 3869 1366 3488 
L 1366 750 
Q 1366 428 1406 325 
Q 1438 247 1538 191 
Q 1672 116 1822 116 
L 1975 116 
z
" transform="scale(0.015625)"/>
        <path id="TimesNewRomanPSMT-54" d="M 3703 4238 
L 3750 3244 
L 3631 3244 
Q 3597 3506 3538 3619 
Q 3441 3800 3280 3886 
Q 3119 3972 2856 3972 
L 2259 3972 
L 2259 734 
Q 2259 344 2344 247 
Q 2463 116 2709 116 
L 2856 116 
L 2856 0 
L 1059 0 
L 1059 116 
L 1209 116 
Q 1478 116 1591 278 
Q 1659 378 1659 734 
L 1659 3972 
L 1150 3972 
Q 853 3972 728 3928 
Q 566 3869 450 3700 
Q 334 3531 313 3244 
L 194 3244 
L 244 4238 
L 3703 4238 
z
" transform="scale(0.015625)"/>
        <path id="DejaVuSans-2192" d="M 5050 2147 
L 5050 1866 
L 3822 638 
L 3447 1013 
L 4175 1741 
L 366 1741 
L 366 2272 
L 4175 2272 
L 3447 3000 
L 3822 3375 
L 5050 2147 
z
" transform="scale(0.015625)"/>
        <path id="TimesNewRomanPSMT-4c" d="M 3669 1172 
L 3772 1150 
L 3409 0 
L 128 0 
L 128 116 
L 288 116 
Q 556 116 672 291 
Q 738 391 738 753 
L 738 3488 
Q 738 3884 650 3984 
Q 528 4122 288 4122 
L 128 4122 
L 128 4238 
L 2047 4238 
L 2047 4122 
Q 1709 4125 1573 4059 
Q 1438 3994 1388 3894 
Q 1338 3794 1338 3416 
L 1338 753 
Q 1338 494 1388 397 
Q 1425 331 1503 300 
Q 1581 269 1991 269 
L 2300 269 
Q 2788 269 2984 341 
Q 3181 413 3343 595 
Q 3506 778 3669 1172 
z
" transform="scale(0.015625)"/>
        <path id="TimesNewRomanPSMT-4f" d="M 2341 4334 
Q 3166 4334 3770 3707 
Q 4375 3081 4375 2144 
Q 4375 1178 3765 540 
Q 3156 -97 2291 -97 
Q 1416 -97 820 525 
Q 225 1147 225 2134 
Q 225 3144 913 3781 
Q 1509 4334 2341 4334 
z
M 2281 4106 
Q 1713 4106 1369 3684 
Q 941 3159 941 2147 
Q 941 1109 1384 550 
Q 1725 125 2284 125 
Q 2881 125 3270 590 
Q 3659 1056 3659 2059 
Q 3659 3147 3231 3681 
Q 2888 4106 2281 4106 
z
" transform="scale(0.015625)"/>
        <path id="TimesNewRomanPSMT-43" d="M 3853 4334 
L 3950 2894 
L 3853 2894 
Q 3659 3541 3300 3825 
Q 2941 4109 2438 4109 
Q 2016 4109 1675 3895 
Q 1334 3681 1139 3212 
Q 944 2744 944 2047 
Q 944 1472 1128 1050 
Q 1313 628 1683 403 
Q 2053 178 2528 178 
Q 2941 178 3256 354 
Q 3572 531 3950 1056 
L 4047 994 
Q 3728 428 3303 165 
Q 2878 -97 2294 -97 
Q 1241 -97 663 684 
Q 231 1266 231 2053 
Q 231 2688 515 3219 
Q 800 3750 1298 4042 
Q 1797 4334 2388 4334 
Q 2847 4334 3294 4109 
Q 3425 4041 3481 4041 
Q 3566 4041 3628 4100 
Q 3709 4184 3744 4334 
L 3853 4334 
z
" transform="scale(0.015625)"/>
       </defs>
       <use xlink:href="#TimesNewRomanPSMT-45" transform="translate(0 0.28125)"/>
       <use xlink:href="#TimesNewRomanPSMT-44" transform="translate(61.083984 0.28125)"/>
       <use xlink:href="#TimesNewRomanPSMT-49" transform="translate(133.300781 0.28125)"/>
       <use xlink:href="#TimesNewRomanPSMT-54" transform="translate(166.601562 0.28125)"/>
       <use xlink:href="#TimesNewRomanPSMT-20" transform="translate(227.685547 0.28125)"/>
       <use xlink:href="#DejaVuSans-2192" transform="translate(272.167969 0.28125)"/>
       <use xlink:href="#TimesNewRomanPSMT-20" transform="translate(375.439453 0.28125)"/>
       <use xlink:href="#TimesNewRomanPSMT-4c" transform="translate(400.439453 0.28125)"/>
       <use xlink:href="#TimesNewRomanPSMT-4f" transform="translate(461.523438 0.28125)"/>
       <use xlink:href="#TimesNewRomanPSMT-43" transform="translate(533.740234 0.28125)"/>
      </g>
     </g>
    </g>
    <g id="ytick_2">
     <g id="line2d_14"/>
     <g id="text_7">
      <!-- EDIT $\rightarrow$ LOGIC -->
      <g transform="translate(9.75 50.103925) scale(0.075 -0.075)">
       <defs>
        <path id="TimesNewRomanPSMT-47" d="M 3928 4334 
L 4038 2997 
L 3928 2997 
Q 3763 3497 3500 3750 
Q 3122 4116 2528 4116 
Q 1719 4116 1297 3475 
Q 944 2934 944 2188 
Q 944 1581 1178 1081 
Q 1413 581 1792 348 
Q 2172 116 2572 116 
Q 2806 116 3025 175 
Q 3244 234 3447 350 
L 3447 1575 
Q 3447 1894 3398 1992 
Q 3350 2091 3248 2142 
Q 3147 2194 2891 2194 
L 2891 2313 
L 4531 2313 
L 4531 2194 
L 4453 2194 
Q 4209 2194 4119 2031 
Q 4056 1916 4056 1575 
L 4056 278 
Q 3697 84 3347 -6 
Q 2997 -97 2569 -97 
Q 1341 -97 703 691 
Q 225 1281 225 2053 
Q 225 2613 494 3125 
Q 813 3734 1369 4063 
Q 1834 4334 2469 4334 
Q 2700 4334 2889 4296 
Q 3078 4259 3425 4131 
Q 3600 4066 3659 4066 
Q 3719 4066 3761 4120 
Q 3803 4175 3813 4334 
L 3928 4334 
z
" transform="scale(0.015625)"/>
       </defs>
       <use xlink:href="#TimesNewRomanPSMT-45" transform="translate(0 0.28125)"/>
       <use xlink:href="#TimesNewRomanPSMT-44" transform="translate(61.083984 0.28125)"/>
       <use xlink:href="#TimesNewRomanPSMT-49" transform="translate(133.300781 0.28125)"/>
       <use xlink:href="#TimesNewRomanPSMT-54" transform="translate(166.601562 0.28125)"/>
       <use xlink:href="#TimesNewRomanPSMT-20" transform="translate(227.685547 0.28125)"/>
       <use xlink:href="#DejaVuSans-2192" transform="translate(272.167969 0.28125)"/>
       <use xlink:href="#TimesNewRomanPSMT-20" transform="translate(375.439453 0.28125)"/>
       <use xlink:href="#TimesNewRomanPSMT-4c" transform="translate(400.439453 0.28125)"/>
       <use xlink:href="#TimesNewRomanPSMT-4f" transform="translate(461.523438 0.28125)"/>
       <use xlink:href="#TimesNewRomanPSMT-47" transform="translate(533.740234 0.28125)"/>
       <use xlink:href="#TimesNewRomanPSMT-49" transform="translate(605.957031 0.28125)"/>
       <use xlink:href="#TimesNewRomanPSMT-43" transform="translate(639.257812 0.28125)"/>
      </g>
     </g>
    </g>
    <g id="ytick_3">
     <g id="line2d_15"/>
     <g id="text_8">
      <!-- EDIT $\rightarrow$ PLAN -->
      <g transform="translate(13.05 69.225236) scale(0.075 -0.075)">
       <defs>
        <path id="TimesNewRomanPSMT-41" d="M 2928 1419 
L 1288 1419 
L 1000 750 
Q 894 503 894 381 
Q 894 284 986 211 
Q 1078 138 1384 116 
L 1384 0 
L 50 0 
L 50 116 
Q 316 163 394 238 
Q 553 388 747 847 
L 2238 4334 
L 2347 4334 
L 3822 809 
Q 4000 384 4145 257 
Q 4291 131 4550 116 
L 4550 0 
L 2878 0 
L 2878 116 
Q 3131 128 3220 200 
Q 3309 272 3309 375 
Q 3309 513 3184 809 
L 2928 1419 
z
M 2841 1650 
L 2122 3363 
L 1384 1650 
L 2841 1650 
z
" transform="scale(0.015625)"/>
        <path id="TimesNewRomanPSMT-4e" d="M -84 4238 
L 1066 4238 
L 3656 1059 
L 3656 3503 
Q 3656 3894 3569 3991 
Q 3453 4122 3203 4122 
L 3056 4122 
L 3056 4238 
L 4531 4238 
L 4531 4122 
L 4381 4122 
Q 4113 4122 4000 3959 
Q 3931 3859 3931 3503 
L 3931 -69 
L 3819 -69 
L 1025 3344 
L 1025 734 
Q 1025 344 1109 247 
Q 1228 116 1475 116 
L 1625 116 
L 1625 0 
L 150 0 
L 150 116 
L 297 116 
Q 569 116 681 278 
Q 750 378 750 734 
L 750 3681 
Q 566 3897 470 3965 
Q 375 4034 191 4094 
Q 100 4122 -84 4122 
L -84 4238 
z
" transform="scale(0.015625)"/>
       </defs>
       <use xlink:href="#TimesNewRomanPSMT-45" transform="translate(0 0.28125)"/>
       <use xlink:href="#TimesNewRomanPSMT-44" transform="translate(61.083984 0.28125)"/>
       <use xlink:href="#TimesNewRomanPSMT-49" transform="translate(133.300781 0.28125)"/>
       <use xlink:href="#TimesNewRomanPSMT-54" transform="translate(166.601562 0.28125)"/>
       <use xlink:href="#TimesNewRomanPSMT-20" transform="translate(227.685547 0.28125)"/>
       <use xlink:href="#DejaVuSans-2192" transform="translate(272.167969 0.28125)"/>
       <use xlink:href="#TimesNewRomanPSMT-20" transform="translate(375.439453 0.28125)"/>
       <use xlink:href="#TimesNewRomanPSMT-50" transform="translate(400.439453 0.28125)"/>
       <use xlink:href="#TimesNewRomanPSMT-4c" transform="translate(456.054688 0.28125)"/>
       <use xlink:href="#TimesNewRomanPSMT-41" transform="translate(517.138672 0.28125)"/>
       <use xlink:href="#TimesNewRomanPSMT-4e" transform="translate(589.355469 0.28125)"/>
      </g>
     </g>
    </g>
    <g id="ytick_4">
     <g id="line2d_16"/>
     <g id="text_9">
      <!-- LOC $\rightarrow$ EDIT -->
      <g transform="translate(17.625 88.346548) scale(0.075 -0.075)">
       <use xlink:href="#TimesNewRomanPSMT-4c" transform="translate(0 0.28125)"/>
       <use xlink:href="#TimesNewRomanPSMT-4f" transform="translate(61.083984 0.28125)"/>
       <use xlink:href="#TimesNewRomanPSMT-43" transform="translate(133.300781 0.28125)"/>
       <use xlink:href="#TimesNewRomanPSMT-20" transform="translate(200 0.28125)"/>
       <use xlink:href="#DejaVuSans-2192" transform="translate(244.482422 0.28125)"/>
       <use xlink:href="#TimesNewRomanPSMT-20" transform="translate(347.753906 0.28125)"/>
       <use xlink:href="#TimesNewRomanPSMT-45" transform="translate(372.753906 0.28125)"/>
       <use xlink:href="#TimesNewRomanPSMT-44" transform="translate(433.837891 0.28125)"/>
       <use xlink:href="#TimesNewRomanPSMT-49" transform="translate(506.054688 0.28125)"/>
       <use xlink:href="#TimesNewRomanPSMT-54" transform="translate(539.355469 0.28125)"/>
      </g>
     </g>
    </g>
    <g id="ytick_5">
     <g id="line2d_17"/>
     <g id="text_10">
      <!-- LOC $\rightarrow$ LOGIC -->
      <g transform="translate(11.775 107.467859) scale(0.075 -0.075)">
       <use xlink:href="#TimesNewRomanPSMT-4c" transform="translate(0 0.28125)"/>
       <use xlink:href="#TimesNewRomanPSMT-4f" transform="translate(61.083984 0.28125)"/>
       <use xlink:href="#TimesNewRomanPSMT-43" transform="translate(133.300781 0.28125)"/>
       <use xlink:href="#TimesNewRomanPSMT-20" transform="translate(200 0.28125)"/>
       <use xlink:href="#DejaVuSans-2192" transform="translate(244.482422 0.28125)"/>
       <use xlink:href="#TimesNewRomanPSMT-20" transform="translate(347.753906 0.28125)"/>
       <use xlink:href="#TimesNewRomanPSMT-4c" transform="translate(372.753906 0.28125)"/>
       <use xlink:href="#TimesNewRomanPSMT-4f" transform="translate(433.837891 0.28125)"/>
       <use xlink:href="#TimesNewRomanPSMT-47" transform="translate(506.054688 0.28125)"/>
       <use xlink:href="#TimesNewRomanPSMT-49" transform="translate(578.271484 0.28125)"/>
       <use xlink:href="#TimesNewRomanPSMT-43" transform="translate(611.572266 0.28125)"/>
      </g>
     </g>
    </g>
    <g id="ytick_6">
     <g id="line2d_18"/>
     <g id="text_11">
      <!-- LOC $\rightarrow$ PLAN -->
      <g transform="translate(15.15 126.589171) scale(0.075 -0.075)">
       <use xlink:href="#TimesNewRomanPSMT-4c" transform="translate(0 0.28125)"/>
       <use xlink:href="#TimesNewRomanPSMT-4f" transform="translate(61.083984 0.28125)"/>
       <use xlink:href="#TimesNewRomanPSMT-43" transform="translate(133.300781 0.28125)"/>
       <use xlink:href="#TimesNewRomanPSMT-20" transform="translate(200 0.28125)"/>
       <use xlink:href="#DejaVuSans-2192" transform="translate(244.482422 0.28125)"/>
       <use xlink:href="#TimesNewRomanPSMT-20" transform="translate(347.753906 0.28125)"/>
       <use xlink:href="#TimesNewRomanPSMT-50" transform="translate(372.753906 0.28125)"/>
       <use xlink:href="#TimesNewRomanPSMT-4c" transform="translate(428.369141 0.28125)"/>
       <use xlink:href="#TimesNewRomanPSMT-41" transform="translate(489.453125 0.28125)"/>
       <use xlink:href="#TimesNewRomanPSMT-4e" transform="translate(561.669922 0.28125)"/>
      </g>
     </g>
    </g>
    <g id="ytick_7">
     <g id="line2d_19"/>
     <g id="text_12">
      <!-- LOGIC $\rightarrow$ EDIT -->
      <g transform="translate(9.75 145.710482) scale(0.075 -0.075)">
       <use xlink:href="#TimesNewRomanPSMT-4c" transform="translate(0 0.28125)"/>
       <use xlink:href="#TimesNewRomanPSMT-4f" transform="translate(61.083984 0.28125)"/>
       <use xlink:href="#TimesNewRomanPSMT-47" transform="translate(133.300781 0.28125)"/>
       <use xlink:href="#TimesNewRomanPSMT-49" transform="translate(205.517578 0.28125)"/>
       <use xlink:href="#TimesNewRomanPSMT-43" transform="translate(238.818359 0.28125)"/>
       <use xlink:href="#TimesNewRomanPSMT-20" transform="translate(305.517578 0.28125)"/>
       <use xlink:href="#DejaVuSans-2192" transform="translate(350 0.28125)"/>
       <use xlink:href="#TimesNewRomanPSMT-20" transform="translate(453.271484 0.28125)"/>
       <use xlink:href="#TimesNewRomanPSMT-45" transform="translate(478.271484 0.28125)"/>
       <use xlink:href="#TimesNewRomanPSMT-44" transform="translate(539.355469 0.28125)"/>
       <use xlink:href="#TimesNewRomanPSMT-49" transform="translate(611.572266 0.28125)"/>
       <use xlink:href="#TimesNewRomanPSMT-54" transform="translate(644.873047 0.28125)"/>
      </g>
     </g>
    </g>
    <g id="ytick_8">
     <g id="line2d_20"/>
     <g id="text_13">
      <!-- LOGIC $\rightarrow$ LOC -->
      <g transform="translate(11.775 164.831793) scale(0.075 -0.075)">
       <use xlink:href="#TimesNewRomanPSMT-4c" transform="translate(0 0.28125)"/>
       <use xlink:href="#TimesNewRomanPSMT-4f" transform="translate(61.083984 0.28125)"/>
       <use xlink:href="#TimesNewRomanPSMT-47" transform="translate(133.300781 0.28125)"/>
       <use xlink:href="#TimesNewRomanPSMT-49" transform="translate(205.517578 0.28125)"/>
       <use xlink:href="#TimesNewRomanPSMT-43" transform="translate(238.818359 0.28125)"/>
       <use xlink:href="#TimesNewRomanPSMT-20" transform="translate(305.517578 0.28125)"/>
       <use xlink:href="#DejaVuSans-2192" transform="translate(350 0.28125)"/>
       <use xlink:href="#TimesNewRomanPSMT-20" transform="translate(453.271484 0.28125)"/>
       <use xlink:href="#TimesNewRomanPSMT-4c" transform="translate(478.271484 0.28125)"/>
       <use xlink:href="#TimesNewRomanPSMT-4f" transform="translate(539.355469 0.28125)"/>
       <use xlink:href="#TimesNewRomanPSMT-43" transform="translate(611.572266 0.28125)"/>
      </g>
     </g>
    </g>
    <g id="ytick_9">
     <g id="line2d_21"/>
     <g id="text_14">
      <!-- LOGIC $\rightarrow$ PLAN -->
      <g transform="translate(7.2 183.953105) scale(0.075 -0.075)">
       <use xlink:href="#TimesNewRomanPSMT-4c" transform="translate(0 0.28125)"/>
       <use xlink:href="#TimesNewRomanPSMT-4f" transform="translate(61.083984 0.28125)"/>
       <use xlink:href="#TimesNewRomanPSMT-47" transform="translate(133.300781 0.28125)"/>
       <use xlink:href="#TimesNewRomanPSMT-49" transform="translate(205.517578 0.28125)"/>
       <use xlink:href="#TimesNewRomanPSMT-43" transform="translate(238.818359 0.28125)"/>
       <use xlink:href="#TimesNewRomanPSMT-20" transform="translate(305.517578 0.28125)"/>
       <use xlink:href="#DejaVuSans-2192" transform="translate(350 0.28125)"/>
       <use xlink:href="#TimesNewRomanPSMT-20" transform="translate(453.271484 0.28125)"/>
       <use xlink:href="#TimesNewRomanPSMT-50" transform="translate(478.271484 0.28125)"/>
       <use xlink:href="#TimesNewRomanPSMT-4c" transform="translate(533.886719 0.28125)"/>
       <use xlink:href="#TimesNewRomanPSMT-41" transform="translate(594.970703 0.28125)"/>
       <use xlink:href="#TimesNewRomanPSMT-4e" transform="translate(667.1875 0.28125)"/>
      </g>
     </g>
    </g>
    <g id="ytick_10">
     <g id="line2d_22"/>
     <g id="text_15">
      <!-- PLAN $\rightarrow$ EDIT -->
      <g transform="translate(13.05 203.074416) scale(0.075 -0.075)">
       <use xlink:href="#TimesNewRomanPSMT-50" transform="translate(0 0.28125)"/>
       <use xlink:href="#TimesNewRomanPSMT-4c" transform="translate(55.615234 0.28125)"/>
       <use xlink:href="#TimesNewRomanPSMT-41" transform="translate(116.699219 0.28125)"/>
       <use xlink:href="#TimesNewRomanPSMT-4e" transform="translate(188.916016 0.28125)"/>
       <use xlink:href="#TimesNewRomanPSMT-20" transform="translate(261.132812 0.28125)"/>
       <use xlink:href="#DejaVuSans-2192" transform="translate(305.615234 0.28125)"/>
       <use xlink:href="#TimesNewRomanPSMT-20" transform="translate(408.886719 0.28125)"/>
       <use xlink:href="#TimesNewRomanPSMT-45" transform="translate(433.886719 0.28125)"/>
       <use xlink:href="#TimesNewRomanPSMT-44" transform="translate(494.970703 0.28125)"/>
       <use xlink:href="#TimesNewRomanPSMT-49" transform="translate(567.1875 0.28125)"/>
       <use xlink:href="#TimesNewRomanPSMT-54" transform="translate(600.488281 0.28125)"/>
      </g>
     </g>
    </g>
    <g id="ytick_11">
     <g id="line2d_23"/>
     <g id="text_16">
      <!-- PLAN $\rightarrow$ LOC -->
      <g transform="translate(15.15 222.195728) scale(0.075 -0.075)">
       <use xlink:href="#TimesNewRomanPSMT-50" transform="translate(0 0.28125)"/>
       <use xlink:href="#TimesNewRomanPSMT-4c" transform="translate(55.615234 0.28125)"/>
       <use xlink:href="#TimesNewRomanPSMT-41" transform="translate(116.699219 0.28125)"/>
       <use xlink:href="#TimesNewRomanPSMT-4e" transform="translate(188.916016 0.28125)"/>
       <use xlink:href="#TimesNewRomanPSMT-20" transform="translate(261.132812 0.28125)"/>
       <use xlink:href="#DejaVuSans-2192" transform="translate(305.615234 0.28125)"/>
       <use xlink:href="#TimesNewRomanPSMT-20" transform="translate(408.886719 0.28125)"/>
       <use xlink:href="#TimesNewRomanPSMT-4c" transform="translate(433.886719 0.28125)"/>
       <use xlink:href="#TimesNewRomanPSMT-4f" transform="translate(494.970703 0.28125)"/>
       <use xlink:href="#TimesNewRomanPSMT-43" transform="translate(567.1875 0.28125)"/>
      </g>
     </g>
    </g>
    <g id="ytick_12">
     <g id="line2d_24"/>
     <g id="text_17">
      <!-- PLAN $\rightarrow$ LOGIC -->
      <g transform="translate(7.2 241.317039) scale(0.075 -0.075)">
       <use xlink:href="#TimesNewRomanPSMT-50" transform="translate(0 0.28125)"/>
       <use xlink:href="#TimesNewRomanPSMT-4c" transform="translate(55.615234 0.28125)"/>
       <use xlink:href="#TimesNewRomanPSMT-41" transform="translate(116.699219 0.28125)"/>
       <use xlink:href="#TimesNewRomanPSMT-4e" transform="translate(188.916016 0.28125)"/>
       <use xlink:href="#TimesNewRomanPSMT-20" transform="translate(261.132812 0.28125)"/>
       <use xlink:href="#DejaVuSans-2192" transform="translate(305.615234 0.28125)"/>
       <use xlink:href="#TimesNewRomanPSMT-20" transform="translate(408.886719 0.28125)"/>
       <use xlink:href="#TimesNewRomanPSMT-4c" transform="translate(433.886719 0.28125)"/>
       <use xlink:href="#TimesNewRomanPSMT-4f" transform="translate(494.970703 0.28125)"/>
       <use xlink:href="#TimesNewRomanPSMT-47" transform="translate(567.1875 0.28125)"/>
       <use xlink:href="#TimesNewRomanPSMT-49" transform="translate(639.404297 0.28125)"/>
       <use xlink:href="#TimesNewRomanPSMT-43" transform="translate(672.705078 0.28125)"/>
      </g>
     </g>
    </g>
   </g>
   <g id="patch_3">
    <path d="M 66.7 250.18592 
L 225.892 250.18592 
" style="fill: none; stroke: #89959b; stroke-width: 0.7; stroke-linejoin: miter; stroke-linecap: square"/>
   </g>
   <g id="LineCollection_1">
    <path d="M 72.318541 25.892936 
L 130.845012 25.892936 
" clip-path="url(#pfc9d12aca4)" style="fill: none; stroke: #3c8fa4; stroke-width: 1.15"/>
   </g>
   <g id="line2d_25">
    <defs>
     <path id="mb77acc4b00" d="M 0 2 
L 0 -2 
" style="stroke: #3c8fa4"/>
    </defs>
    <g clip-path="url(#pfc9d12aca4)">
     <use xlink:href="#mb77acc4b00" x="72.318541" y="25.892936" style="fill: #3c8fa4; stroke: #3c8fa4"/>
    </g>
   </g>
   <g id="line2d_26">
    <g clip-path="url(#pfc9d12aca4)">
     <use xlink:href="#mb77acc4b00" x="130.845012" y="25.892936" style="fill: #3c8fa4; stroke: #3c8fa4"/>
    </g>
   </g>
   <g id="LineCollection_2">
    <path d="M 119.139718 30.864477 
L 154.2556 30.864477 
" clip-path="url(#pfc9d12aca4)" style="fill: none; stroke: #c96f5f; stroke-width: 1.05"/>
   </g>
   <g id="line2d_27">
    <defs>
     <path id="m29a6609e41" d="M 0 2 
L 0 -2 
" style="stroke: #c96f5f; stroke-width: 1.15"/>
    </defs>
    <g clip-path="url(#pfc9d12aca4)">
     <use xlink:href="#m29a6609e41" x="119.139718" y="30.864477" style="fill: #c96f5f; stroke: #c96f5f; stroke-width: 1.15"/>
    </g>
   </g>
   <g id="line2d_28">
    <g clip-path="url(#pfc9d12aca4)">
     <use xlink:href="#m29a6609e41" x="154.2556" y="30.864477" style="fill: #c96f5f; stroke: #c96f5f; stroke-width: 1.15"/>
    </g>
   </g>
   <g id="LineCollection_3">
    <path d="M 109.775482 45.014248 
L 160.108247 45.014248 
" clip-path="url(#pfc9d12aca4)" style="fill: none; stroke: #3c8fa4; stroke-width: 1.15"/>
   </g>
   <g id="line2d_29">
    <g clip-path="url(#pfc9d12aca4)">
     <use xlink:href="#mb77acc4b00" x="109.775482" y="45.014248" style="fill: #3c8fa4; stroke: #3c8fa4"/>
    </g>
   </g>
   <g id="line2d_30">
    <g clip-path="url(#pfc9d12aca4)">
     <use xlink:href="#mb77acc4b00" x="160.108247" y="45.014248" style="fill: #3c8fa4; stroke: #3c8fa4"/>
    </g>
   </g>
   <g id="LineCollection_4">
    <path d="M 119.139718 49.985789 
L 169.305264 49.985789 
" clip-path="url(#pfc9d12aca4)" style="fill: none; stroke: #c96f5f; stroke-width: 1.05"/>
   </g>
   <g id="line2d_31">
    <g clip-path="url(#pfc9d12aca4)">
     <use xlink:href="#m29a6609e41" x="119.139718" y="49.985789" style="fill: #c96f5f; stroke: #c96f5f; stroke-width: 1.15"/>
    </g>
   </g>
   <g id="line2d_32">
    <g clip-path="url(#pfc9d12aca4)">
     <use xlink:href="#m29a6609e41" x="169.305264" y="49.985789" style="fill: #c96f5f; stroke: #c96f5f; stroke-width: 1.15"/>
    </g>
   </g>
   <g id="LineCollection_5">
    <path d="M 119.139718 64.135559 
L 165.960894 64.135559 
" clip-path="url(#pfc9d12aca4)" style="fill: none; stroke: #3c8fa4; stroke-width: 1.15"/>
   </g>
   <g id="line2d_33">
    <g clip-path="url(#pfc9d12aca4)">
     <use xlink:href="#mb77acc4b00" x="119.139718" y="64.135559" style="fill: #3c8fa4; stroke: #3c8fa4"/>
    </g>
   </g>
   <g id="line2d_34">
    <g clip-path="url(#pfc9d12aca4)">
     <use xlink:href="#mb77acc4b00" x="165.960894" y="64.135559" style="fill: #3c8fa4; stroke: #3c8fa4"/>
    </g>
   </g>
   <g id="LineCollection_6">
    <path d="M 119.139718 69.1071 
L 165.960894 69.1071 
" clip-path="url(#pfc9d12aca4)" style="fill: none; stroke: #c96f5f; stroke-width: 1.05"/>
   </g>
   <g id="line2d_35">
    <g clip-path="url(#pfc9d12aca4)">
     <use xlink:href="#m29a6609e41" x="119.139718" y="69.1071" style="fill: #c96f5f; stroke: #c96f5f; stroke-width: 1.15"/>
    </g>
   </g>
   <g id="line2d_36">
    <g clip-path="url(#pfc9d12aca4)">
     <use xlink:href="#m29a6609e41" x="165.960894" y="69.1071" style="fill: #c96f5f; stroke: #c96f5f; stroke-width: 1.15"/>
    </g>
   </g>
   <g id="LineCollection_7">
    <path d="M 138.215012 83.256871 
L 165.960894 83.256871 
" clip-path="url(#pfc9d12aca4)" style="fill: none; stroke: #3c8fa4; stroke-width: 1.15"/>
   </g>
   <g id="line2d_37">
    <g clip-path="url(#pfc9d12aca4)">
     <use xlink:href="#mb77acc4b00" x="138.215012" y="83.256871" style="fill: #3c8fa4; stroke: #3c8fa4"/>
    </g>
   </g>
   <g id="line2d_38">
    <g clip-path="url(#pfc9d12aca4)">
     <use xlink:href="#mb77acc4b00" x="165.960894" y="83.256871" style="fill: #3c8fa4; stroke: #3c8fa4"/>
    </g>
   </g>
   <g id="LineCollection_8">
    <path d="M 139.496751 88.228412 
L 168.301953 88.228412 
" clip-path="url(#pfc9d12aca4)" style="fill: none; stroke: #c96f5f; stroke-width: 1.05"/>
   </g>
   <g id="line2d_39">
    <g clip-path="url(#pfc9d12aca4)">
     <use xlink:href="#m29a6609e41" x="139.496751" y="88.228412" style="fill: #c96f5f; stroke: #c96f5f; stroke-width: 1.15"/>
    </g>
   </g>
   <g id="line2d_40">
    <g clip-path="url(#pfc9d12aca4)">
     <use xlink:href="#m29a6609e41" x="168.301953" y="88.228412" style="fill: #c96f5f; stroke: #c96f5f; stroke-width: 1.15"/>
    </g>
   </g>
   <g id="LineCollection_9">
    <path d="M 128.503953 102.378182 
L 173.764424 102.378182 
" clip-path="url(#pfc9d12aca4)" style="fill: none; stroke: #3c8fa4; stroke-width: 1.15"/>
   </g>
   <g id="line2d_41">
    <g clip-path="url(#pfc9d12aca4)">
     <use xlink:href="#mb77acc4b00" x="128.503953" y="102.378182" style="fill: #3c8fa4; stroke: #3c8fa4"/>
    </g>
   </g>
   <g id="line2d_42">
    <g clip-path="url(#pfc9d12aca4)">
     <use xlink:href="#mb77acc4b00" x="173.764424" y="102.378182" style="fill: #3c8fa4; stroke: #3c8fa4"/>
    </g>
   </g>
   <g id="LineCollection_10">
    <path d="M 133.186071 107.349723 
L 176.602071 107.349723 
" clip-path="url(#pfc9d12aca4)" style="fill: none; stroke: #c96f5f; stroke-width: 1.05"/>
   </g>
   <g id="line2d_43">
    <g clip-path="url(#pfc9d12aca4)">
     <use xlink:href="#m29a6609e41" x="133.186071" y="107.349723" style="fill: #c96f5f; stroke: #c96f5f; stroke-width: 1.15"/>
    </g>
   </g>
   <g id="line2d_44">
    <g clip-path="url(#pfc9d12aca4)">
     <use xlink:href="#m29a6609e41" x="176.602071" y="107.349723" style="fill: #c96f5f; stroke: #c96f5f; stroke-width: 1.15"/>
    </g>
   </g>
   <g id="LineCollection_11">
    <path d="M 119.139718 121.499494 
L 165.960894 121.499494 
" clip-path="url(#pfc9d12aca4)" style="fill: none; stroke: #3c8fa4; stroke-width: 1.15"/>
   </g>
   <g id="line2d_45">
    <g clip-path="url(#pfc9d12aca4)">
     <use xlink:href="#mb77acc4b00" x="119.139718" y="121.499494" style="fill: #3c8fa4; stroke: #3c8fa4"/>
    </g>
   </g>
   <g id="line2d_46">
    <g clip-path="url(#pfc9d12aca4)">
     <use xlink:href="#mb77acc4b00" x="165.960894" y="121.499494" style="fill: #3c8fa4; stroke: #3c8fa4"/>
    </g>
   </g>
   <g id="LineCollection_12">
    <path d="M 119.139718 126.471035 
L 165.960894 126.471035 
" clip-path="url(#pfc9d12aca4)" style="fill: none; stroke: #c96f5f; stroke-width: 1.05"/>
   </g>
   <g id="line2d_47">
    <g clip-path="url(#pfc9d12aca4)">
     <use xlink:href="#m29a6609e41" x="119.139718" y="126.471035" style="fill: #c96f5f; stroke: #c96f5f; stroke-width: 1.15"/>
    </g>
   </g>
   <g id="line2d_48">
    <g clip-path="url(#pfc9d12aca4)">
     <use xlink:href="#m29a6609e41" x="165.960894" y="126.471035" style="fill: #c96f5f; stroke: #c96f5f; stroke-width: 1.15"/>
    </g>
   </g>
   <g id="LineCollection_13">
    <path d="M 142.550306 140.620805 
L 168.715081 140.620805 
" clip-path="url(#pfc9d12aca4)" style="fill: none; stroke: #3c8fa4; stroke-width: 1.15"/>
   </g>
   <g id="line2d_49">
    <g clip-path="url(#pfc9d12aca4)">
     <use xlink:href="#mb77acc4b00" x="142.550306" y="140.620805" style="fill: #3c8fa4; stroke: #3c8fa4"/>
    </g>
   </g>
   <g id="line2d_50">
    <g clip-path="url(#pfc9d12aca4)">
     <use xlink:href="#mb77acc4b00" x="168.715081" y="140.620805" style="fill: #3c8fa4; stroke: #3c8fa4"/>
    </g>
   </g>
   <g id="LineCollection_14">
    <path d="M 141.31817 145.592346 
L 165.960894 145.592346 
" clip-path="url(#pfc9d12aca4)" style="fill: none; stroke: #c96f5f; stroke-width: 1.05"/>
   </g>
   <g id="line2d_51">
    <g clip-path="url(#pfc9d12aca4)">
     <use xlink:href="#m29a6609e41" x="141.31817" y="145.592346" style="fill: #c96f5f; stroke: #c96f5f; stroke-width: 1.15"/>
    </g>
   </g>
   <g id="line2d_52">
    <g clip-path="url(#pfc9d12aca4)">
     <use xlink:href="#m29a6609e41" x="165.960894" y="145.592346" style="fill: #c96f5f; stroke: #c96f5f; stroke-width: 1.15"/>
    </g>
   </g>
   <g id="LineCollection_15">
    <path d="M 72.318541 159.742117 
L 138.648541 159.742117 
" clip-path="url(#pfc9d12aca4)" style="fill: none; stroke: #3c8fa4; stroke-width: 1.15"/>
   </g>
   <g id="line2d_53">
    <g clip-path="url(#pfc9d12aca4)">
     <use xlink:href="#mb77acc4b00" x="72.318541" y="159.742117" style="fill: #3c8fa4; stroke: #3c8fa4"/>
    </g>
   </g>
   <g id="line2d_54">
    <g clip-path="url(#pfc9d12aca4)">
     <use xlink:href="#mb77acc4b00" x="138.648541" y="159.742117" style="fill: #3c8fa4; stroke: #3c8fa4"/>
    </g>
   </g>
   <g id="LineCollection_16">
    <path d="M 119.139718 164.713658 
L 157.181924 164.713658 
" clip-path="url(#pfc9d12aca4)" style="fill: none; stroke: #c96f5f; stroke-width: 1.05"/>
   </g>
   <g id="line2d_55">
    <g clip-path="url(#pfc9d12aca4)">
     <use xlink:href="#m29a6609e41" x="119.139718" y="164.713658" style="fill: #c96f5f; stroke: #c96f5f; stroke-width: 1.15"/>
    </g>
   </g>
   <g id="line2d_56">
    <g clip-path="url(#pfc9d12aca4)">
     <use xlink:href="#m29a6609e41" x="157.181924" y="164.713658" style="fill: #c96f5f; stroke: #c96f5f; stroke-width: 1.15"/>
    </g>
   </g>
   <g id="LineCollection_17">
    <path d="M 119.139718 178.863428 
L 165.960894 178.863428 
" clip-path="url(#pfc9d12aca4)" style="fill: none; stroke: #3c8fa4; stroke-width: 1.15"/>
   </g>
   <g id="line2d_57">
    <g clip-path="url(#pfc9d12aca4)">
     <use xlink:href="#mb77acc4b00" x="119.139718" y="178.863428" style="fill: #3c8fa4; stroke: #3c8fa4"/>
    </g>
   </g>
   <g id="line2d_58">
    <g clip-path="url(#pfc9d12aca4)">
     <use xlink:href="#mb77acc4b00" x="165.960894" y="178.863428" style="fill: #3c8fa4; stroke: #3c8fa4"/>
    </g>
   </g>
   <g id="LineCollection_18">
    <path d="M 119.139718 183.834969 
L 165.960894 183.834969 
" clip-path="url(#pfc9d12aca4)" style="fill: none; stroke: #c96f5f; stroke-width: 1.05"/>
   </g>
   <g id="line2d_59">
    <g clip-path="url(#pfc9d12aca4)">
     <use xlink:href="#m29a6609e41" x="119.139718" y="183.834969" style="fill: #c96f5f; stroke: #c96f5f; stroke-width: 1.15"/>
    </g>
   </g>
   <g id="line2d_60">
    <g clip-path="url(#pfc9d12aca4)">
     <use xlink:href="#m29a6609e41" x="165.960894" y="183.834969" style="fill: #c96f5f; stroke: #c96f5f; stroke-width: 1.15"/>
    </g>
   </g>
   <g id="LineCollection_19">
    <path d="M 200.012659 197.98474 
L 219.47081 197.98474 
" clip-path="url(#pfc9d12aca4)" style="fill: none; stroke: #3c8fa4; stroke-width: 1.15"/>
   </g>
   <g id="line2d_61">
    <g clip-path="url(#pfc9d12aca4)">
     <use xlink:href="#mb77acc4b00" x="200.012659" y="197.98474" style="fill: #3c8fa4; stroke: #3c8fa4"/>
    </g>
   </g>
   <g id="line2d_62">
    <g clip-path="url(#pfc9d12aca4)">
     <use xlink:href="#mb77acc4b00" x="219.47081" y="197.98474" style="fill: #3c8fa4; stroke: #3c8fa4"/>
    </g>
   </g>
   <g id="LineCollection_20">
    <path d="M 154.2556 202.956281 
L 187.570668 202.956281 
" clip-path="url(#pfc9d12aca4)" style="fill: none; stroke: #c96f5f; stroke-width: 1.05"/>
   </g>
   <g id="line2d_63">
    <g clip-path="url(#pfc9d12aca4)">
     <use xlink:href="#m29a6609e41" x="154.2556" y="202.956281" style="fill: #c96f5f; stroke: #c96f5f; stroke-width: 1.15"/>
    </g>
   </g>
   <g id="line2d_64">
    <g clip-path="url(#pfc9d12aca4)">
     <use xlink:href="#m29a6609e41" x="187.570668" y="202.956281" style="fill: #c96f5f; stroke: #c96f5f; stroke-width: 1.15"/>
    </g>
   </g>
   <g id="LineCollection_21">
    <path d="M 119.139718 217.106051 
L 173.764424 217.106051 
" clip-path="url(#pfc9d12aca4)" style="fill: none; stroke: #3c8fa4; stroke-width: 1.15"/>
   </g>
   <g id="line2d_65">
    <g clip-path="url(#pfc9d12aca4)">
     <use xlink:href="#mb77acc4b00" x="119.139718" y="217.106051" style="fill: #3c8fa4; stroke: #3c8fa4"/>
    </g>
   </g>
   <g id="line2d_66">
    <g clip-path="url(#pfc9d12aca4)">
     <use xlink:href="#mb77acc4b00" x="173.764424" y="217.106051" style="fill: #3c8fa4; stroke: #3c8fa4"/>
    </g>
   </g>
   <g id="LineCollection_22">
    <path d="M 147.232424 222.077592 
L 179.338373 222.077592 
" clip-path="url(#pfc9d12aca4)" style="fill: none; stroke: #c96f5f; stroke-width: 1.05"/>
   </g>
   <g id="line2d_67">
    <g clip-path="url(#pfc9d12aca4)">
     <use xlink:href="#m29a6609e41" x="147.232424" y="222.077592" style="fill: #c96f5f; stroke: #c96f5f; stroke-width: 1.15"/>
    </g>
   </g>
   <g id="line2d_68">
    <g clip-path="url(#pfc9d12aca4)">
     <use xlink:href="#m29a6609e41" x="179.338373" y="222.077592" style="fill: #c96f5f; stroke: #c96f5f; stroke-width: 1.15"/>
    </g>
   </g>
   <g id="LineCollection_23">
    <path d="M 144.678541 236.227363 
L 204.51951 236.227363 
" clip-path="url(#pfc9d12aca4)" style="fill: none; stroke: #3c8fa4; stroke-width: 1.15"/>
   </g>
   <g id="line2d_69">
    <g clip-path="url(#pfc9d12aca4)">
     <use xlink:href="#mb77acc4b00" x="144.678541" y="236.227363" style="fill: #3c8fa4; stroke: #3c8fa4"/>
    </g>
   </g>
   <g id="line2d_70">
    <g clip-path="url(#pfc9d12aca4)">
     <use xlink:href="#mb77acc4b00" x="204.51951" y="236.227363" style="fill: #3c8fa4; stroke: #3c8fa4"/>
    </g>
   </g>
   <g id="LineCollection_24">
    <path d="M 123.396188 241.198904 
L 162.616524 241.198904 
" clip-path="url(#pfc9d12aca4)" style="fill: none; stroke: #c96f5f; stroke-width: 1.05"/>
   </g>
   <g id="line2d_71">
    <g clip-path="url(#pfc9d12aca4)">
     <use xlink:href="#m29a6609e41" x="123.396188" y="241.198904" style="fill: #c96f5f; stroke: #c96f5f; stroke-width: 1.15"/>
    </g>
   </g>
   <g id="line2d_72">
    <g clip-path="url(#pfc9d12aca4)">
     <use xlink:href="#m29a6609e41" x="162.616524" y="241.198904" style="fill: #c96f5f; stroke: #c96f5f; stroke-width: 1.15"/>
    </g>
   </g>
   <g id="text_18">
    <!-- scaffold source $\rightarrow$ target category -->
    <g style="fill: #59666c" transform="translate(69.08788 12.1) scale(0.07 -0.07)">
     <defs>
      <path id="TimesNewRomanPSMT-66" d="M 1319 2638 
L 1319 756 
Q 1319 356 1406 250 
Q 1522 113 1716 113 
L 1975 113 
L 1975 0 
L 266 0 
L 266 113 
L 394 113 
Q 519 113 622 175 
Q 725 238 764 344 
Q 803 450 803 756 
L 803 2638 
L 247 2638 
L 247 2863 
L 803 2863 
L 803 3050 
Q 803 3478 940 3775 
Q 1078 4072 1361 4255 
Q 1644 4438 1997 4438 
Q 2325 4438 2600 4225 
Q 2781 4084 2781 3909 
Q 2781 3816 2700 3733 
Q 2619 3650 2525 3650 
Q 2453 3650 2373 3701 
Q 2294 3753 2178 3923 
Q 2063 4094 1966 4153 
Q 1869 4213 1750 4213 
Q 1606 4213 1506 4136 
Q 1406 4059 1362 3898 
Q 1319 3738 1319 3069 
L 1319 2863 
L 2056 2863 
L 2056 2638 
L 1319 2638 
z
" transform="scale(0.015625)"/>
      <path id="TimesNewRomanPSMT-75" d="M 2709 2863 
L 2709 1128 
Q 2709 631 2732 520 
Q 2756 409 2807 365 
Q 2859 322 2928 322 
Q 3025 322 3147 375 
L 3191 266 
L 2334 -88 
L 2194 -88 
L 2194 519 
Q 1825 119 1631 15 
Q 1438 -88 1222 -88 
Q 981 -88 804 51 
Q 628 191 559 409 
Q 491 628 491 1028 
L 491 2306 
Q 491 2509 447 2587 
Q 403 2666 317 2708 
Q 231 2750 6 2747 
L 6 2863 
L 1009 2863 
L 1009 947 
Q 1009 547 1148 422 
Q 1288 297 1484 297 
Q 1619 297 1789 381 
Q 1959 466 2194 703 
L 2194 2325 
Q 2194 2569 2105 2655 
Q 2016 2741 1734 2747 
L 1734 2863 
L 2709 2863 
z
" transform="scale(0.015625)"/>
      <path id="TimesNewRomanPSMT-67" d="M 966 1044 
Q 703 1172 562 1401 
Q 422 1631 422 1909 
Q 422 2334 742 2640 
Q 1063 2947 1563 2947 
Q 1972 2947 2272 2747 
L 2878 2747 
Q 3013 2747 3034 2739 
Q 3056 2731 3066 2713 
Q 3084 2684 3084 2613 
Q 3084 2531 3069 2500 
Q 3059 2484 3036 2475 
Q 3013 2466 2878 2466 
L 2506 2466 
Q 2681 2241 2681 1891 
Q 2681 1491 2375 1206 
Q 2069 922 1553 922 
Q 1341 922 1119 984 
Q 981 866 932 777 
Q 884 688 884 625 
Q 884 572 936 522 
Q 988 472 1138 450 
Q 1225 438 1575 428 
Q 2219 413 2409 384 
Q 2700 344 2873 169 
Q 3047 -6 3047 -263 
Q 3047 -616 2716 -925 
Q 2228 -1381 1444 -1381 
Q 841 -1381 425 -1109 
Q 191 -953 191 -784 
Q 191 -709 225 -634 
Q 278 -519 444 -313 
Q 466 -284 763 25 
Q 600 122 533 198 
Q 466 275 466 372 
Q 466 481 555 628 
Q 644 775 966 1044 
z
M 1509 2797 
Q 1278 2797 1122 2612 
Q 966 2428 966 2047 
Q 966 1553 1178 1281 
Q 1341 1075 1591 1075 
Q 1828 1075 1981 1253 
Q 2134 1431 2134 1813 
Q 2134 2309 1919 2591 
Q 1759 2797 1509 2797 
z
M 934 0 
Q 788 -159 713 -296 
Q 638 -434 638 -550 
Q 638 -700 819 -813 
Q 1131 -1006 1722 -1006 
Q 2284 -1006 2551 -807 
Q 2819 -609 2819 -384 
Q 2819 -222 2659 -153 
Q 2497 -84 2016 -72 
Q 1313 -53 934 0 
z
" transform="scale(0.015625)"/>
      <path id="TimesNewRomanPSMT-79" d="M 38 2863 
L 1372 2863 
L 1372 2747 
L 1306 2747 
Q 1166 2747 1095 2686 
Q 1025 2625 1025 2534 
Q 1025 2413 1128 2197 
L 1825 753 
L 2466 2334 
Q 2519 2463 2519 2588 
Q 2519 2644 2497 2672 
Q 2472 2706 2419 2726 
Q 2366 2747 2231 2747 
L 2231 2863 
L 3163 2863 
L 3163 2747 
Q 3047 2734 2984 2696 
Q 2922 2659 2847 2556 
Q 2819 2513 2741 2316 
L 1575 -541 
Q 1406 -956 1132 -1168 
Q 859 -1381 606 -1381 
Q 422 -1381 303 -1275 
Q 184 -1169 184 -1031 
Q 184 -900 270 -820 
Q 356 -741 506 -741 
Q 609 -741 788 -809 
Q 913 -856 944 -856 
Q 1038 -856 1148 -759 
Q 1259 -663 1372 -384 
L 1575 113 
L 547 2272 
Q 500 2369 397 2513 
Q 319 2622 269 2659 
Q 197 2709 38 2747 
L 38 2863 
z
" transform="scale(0.015625)"/>
     </defs>
     <use xlink:href="#TimesNewRomanPSMT-73" transform="translate(0 0.5625)"/>
     <use xlink:href="#TimesNewRomanPSMT-63" transform="translate(38.916016 0.5625)"/>
     <use xlink:href="#TimesNewRomanPSMT-61" transform="translate(83.300781 0.5625)"/>
     <use xlink:href="#TimesNewRomanPSMT-66" transform="translate(127.685547 0.5625)"/>
     <use xlink:href="#TimesNewRomanPSMT-66" transform="translate(160.986328 0.5625)"/>
     <use xlink:href="#TimesNewRomanPSMT-6f" transform="translate(194.287109 0.5625)"/>
     <use xlink:href="#TimesNewRomanPSMT-6c" transform="translate(244.287109 0.5625)"/>
     <use xlink:href="#TimesNewRomanPSMT-64" transform="translate(272.070312 0.5625)"/>
     <use xlink:href="#TimesNewRomanPSMT-20" transform="translate(322.070312 0.5625)"/>
     <use xlink:href="#TimesNewRomanPSMT-73" transform="translate(347.070312 0.5625)"/>
     <use xlink:href="#TimesNewRomanPSMT-6f" transform="translate(385.986328 0.5625)"/>
     <use xlink:href="#TimesNewRomanPSMT-75" transform="translate(435.986328 0.5625)"/>
     <use xlink:href="#TimesNewRomanPSMT-72" transform="translate(485.986328 0.5625)"/>
     <use xlink:href="#TimesNewRomanPSMT-63" transform="translate(519.287109 0.5625)"/>
     <use xlink:href="#TimesNewRomanPSMT-65" transform="translate(563.671875 0.5625)"/>
     <use xlink:href="#TimesNewRomanPSMT-20" transform="translate(608.056641 0.5625)"/>
     <use xlink:href="#DejaVuSans-2192" transform="translate(652.539062 0.5625)"/>
     <use xlink:href="#TimesNewRomanPSMT-20" transform="translate(755.810547 0.5625)"/>
     <use xlink:href="#TimesNewRomanPSMT-74" transform="translate(780.810547 0.5625)"/>
     <use xlink:href="#TimesNewRomanPSMT-61" transform="translate(808.59375 0.5625)"/>
     <use xlink:href="#TimesNewRomanPSMT-72" transform="translate(852.978516 0.5625)"/>
     <use xlink:href="#TimesNewRomanPSMT-67" transform="translate(886.279297 0.5625)"/>
     <use xlink:href="#TimesNewRomanPSMT-65" transform="translate(936.279297 0.5625)"/>
     <use xlink:href="#TimesNewRomanPSMT-74" transform="translate(980.664062 0.5625)"/>
     <use xlink:href="#TimesNewRomanPSMT-20" transform="translate(1008.447266 0.5625)"/>
     <use xlink:href="#TimesNewRomanPSMT-63" transform="translate(1033.447266 0.5625)"/>
     <use xlink:href="#TimesNewRomanPSMT-61" transform="translate(1077.832031 0.5625)"/>
     <use xlink:href="#TimesNewRomanPSMT-74" transform="translate(1122.216797 0.5625)"/>
     <use xlink:href="#TimesNewRomanPSMT-65" transform="translate(1150 0.5625)"/>
     <use xlink:href="#TimesNewRomanPSMT-67" transform="translate(1194.384766 0.5625)"/>
     <use xlink:href="#TimesNewRomanPSMT-6f" transform="translate(1244.384766 0.5625)"/>
     <use xlink:href="#TimesNewRomanPSMT-72" transform="translate(1294.384766 0.5625)"/>
     <use xlink:href="#TimesNewRomanPSMT-79" transform="translate(1327.685547 0.5625)"/>
    </g>
   </g>
   <g id="line2d_73">
    <defs>
     <path id="m94f4504924" d="M 0 2.1 
C 0.556927 2.1 1.091118 1.878731 1.484924 1.484924 
C 1.878731 1.091118 2.1 0.556927 2.1 0 
C 2.1 -0.556927 1.878731 -1.091118 1.484924 -1.484924 
C 1.091118 -1.878731 0.556927 -2.1 0 -2.1 
C -0.556927 -2.1 -1.091118 -1.878731 -1.484924 -1.484924 
C -1.878731 -1.091118 -2.1 -0.556927 -2.1 0 
C -2.1 0.556927 -1.878731 1.091118 -1.484924 1.484924 
C -1.091118 1.878731 -0.556927 2.1 0 2.1 
z
" style="stroke: #3c8fa4"/>
    </defs>
    <g clip-path="url(#pfc9d12aca4)">
     <use xlink:href="#m94f4504924" x="116.018306" y="25.892936" style="fill: #3c8fa4; stroke: #3c8fa4"/>
    </g>
   </g>
   <g id="line2d_74">
    <defs>
     <path id="m1ebc9222e1" d="M -0 2.616295 
L 2.616295 0 
L 0 -2.616295 
L -2.616295 -0 
z
" style="stroke: #c96f5f; stroke-width: 1.15; stroke-linejoin: miter"/>
    </defs>
    <g clip-path="url(#pfc9d12aca4)">
     <use xlink:href="#m1ebc9222e1" x="137.868188" y="30.864477" style="fill: #ffffff; stroke: #c96f5f; stroke-width: 1.15; stroke-linejoin: miter"/>
    </g>
   </g>
   <g id="line2d_75">
    <g clip-path="url(#pfc9d12aca4)">
     <use xlink:href="#m94f4504924" x="134.746776" y="45.014248" style="fill: #3c8fa4; stroke: #3c8fa4"/>
    </g>
   </g>
   <g id="line2d_76">
    <g clip-path="url(#pfc9d12aca4)">
     <use xlink:href="#m1ebc9222e1" x="140.9896" y="49.985789" style="fill: #ffffff; stroke: #c96f5f; stroke-width: 1.15; stroke-linejoin: miter"/>
    </g>
   </g>
   <g id="line2d_77">
    <g clip-path="url(#pfc9d12aca4)">
     <use xlink:href="#m94f4504924" x="130.845012" y="64.135559" style="fill: #3c8fa4; stroke: #3c8fa4"/>
    </g>
   </g>
   <g id="line2d_78">
    <g clip-path="url(#pfc9d12aca4)">
     <use xlink:href="#m1ebc9222e1" x="130.845012" y="69.1071" style="fill: #ffffff; stroke: #c96f5f; stroke-width: 1.15; stroke-linejoin: miter"/>
    </g>
   </g>
   <g id="line2d_79">
    <g clip-path="url(#pfc9d12aca4)">
     <use xlink:href="#m94f4504924" x="152.583415" y="83.256871" style="fill: #3c8fa4; stroke: #3c8fa4"/>
    </g>
   </g>
   <g id="line2d_80">
    <g clip-path="url(#pfc9d12aca4)">
     <use xlink:href="#m1ebc9222e1" x="154.2556" y="88.228412" style="fill: #ffffff; stroke: #c96f5f; stroke-width: 1.15; stroke-linejoin: miter"/>
    </g>
   </g>
   <g id="line2d_81">
    <g clip-path="url(#pfc9d12aca4)">
     <use xlink:href="#m94f4504924" x="156.596659" y="102.378182" style="fill: #3c8fa4; stroke: #3c8fa4"/>
    </g>
   </g>
   <g id="line2d_82">
    <g clip-path="url(#pfc9d12aca4)">
     <use xlink:href="#m1ebc9222e1" x="162.839482" y="107.349723" style="fill: #ffffff; stroke: #c96f5f; stroke-width: 1.15; stroke-linejoin: miter"/>
    </g>
   </g>
   <g id="line2d_83">
    <g clip-path="url(#pfc9d12aca4)">
     <use xlink:href="#m94f4504924" x="148.402953" y="121.499494" style="fill: #3c8fa4; stroke: #3c8fa4"/>
    </g>
   </g>
   <g id="line2d_84">
    <g clip-path="url(#pfc9d12aca4)">
     <use xlink:href="#m1ebc9222e1" x="148.402953" y="126.471035" style="fill: #ffffff; stroke: #c96f5f; stroke-width: 1.15; stroke-linejoin: miter"/>
    </g>
   </g>
   <g id="line2d_85">
    <g clip-path="url(#pfc9d12aca4)">
     <use xlink:href="#m94f4504924" x="155.156007" y="140.620805" style="fill: #3c8fa4; stroke: #3c8fa4"/>
    </g>
   </g>
   <g id="line2d_86">
    <g clip-path="url(#pfc9d12aca4)">
     <use xlink:href="#m1ebc9222e1" x="153.355193" y="145.592346" style="fill: #ffffff; stroke: #c96f5f; stroke-width: 1.15; stroke-linejoin: miter"/>
    </g>
   </g>
   <g id="line2d_87">
    <g clip-path="url(#pfc9d12aca4)">
     <use xlink:href="#m94f4504924" x="125.382541" y="159.742117" style="fill: #3c8fa4; stroke: #3c8fa4"/>
    </g>
   </g>
   <g id="line2d_88">
    <g clip-path="url(#pfc9d12aca4)">
     <use xlink:href="#m1ebc9222e1" x="147.232424" y="164.713658" style="fill: #ffffff; stroke: #c96f5f; stroke-width: 1.15; stroke-linejoin: miter"/>
    </g>
   </g>
   <g id="line2d_89">
    <g clip-path="url(#pfc9d12aca4)">
     <use xlink:href="#m94f4504924" x="142.550306" y="178.863428" style="fill: #3c8fa4; stroke: #3c8fa4"/>
    </g>
   </g>
   <g id="line2d_90">
    <g clip-path="url(#pfc9d12aca4)">
     <use xlink:href="#m1ebc9222e1" x="142.550306" y="183.834969" style="fill: #ffffff; stroke: #c96f5f; stroke-width: 1.15; stroke-linejoin: miter"/>
    </g>
   </g>
   <g id="line2d_91">
    <g clip-path="url(#pfc9d12aca4)">
     <use xlink:href="#m94f4504924" x="212.782071" y="197.98474" style="fill: #3c8fa4; stroke: #3c8fa4"/>
    </g>
   </g>
   <g id="line2d_92">
    <g clip-path="url(#pfc9d12aca4)">
     <use xlink:href="#m1ebc9222e1" x="172.203718" y="202.956281" style="fill: #ffffff; stroke: #c96f5f; stroke-width: 1.15; stroke-linejoin: miter"/>
    </g>
   </g>
   <g id="line2d_93">
    <g clip-path="url(#pfc9d12aca4)">
     <use xlink:href="#m94f4504924" x="162.839482" y="217.106051" style="fill: #3c8fa4; stroke: #3c8fa4"/>
    </g>
   </g>
   <g id="line2d_94">
    <g clip-path="url(#pfc9d12aca4)">
     <use xlink:href="#m1ebc9222e1" x="159.718071" y="222.077592" style="fill: #ffffff; stroke: #c96f5f; stroke-width: 1.15; stroke-linejoin: miter"/>
    </g>
   </g>
   <g id="line2d_95">
    <g clip-path="url(#pfc9d12aca4)">
     <use xlink:href="#m94f4504924" x="181.567953" y="236.227363" style="fill: #3c8fa4; stroke: #3c8fa4"/>
    </g>
   </g>
   <g id="line2d_96">
    <g clip-path="url(#pfc9d12aca4)">
     <use xlink:href="#m1ebc9222e1" x="147.232424" y="241.198904" style="fill: #ffffff; stroke: #c96f5f; stroke-width: 1.15; stroke-linejoin: miter"/>
    </g>
   </g>
   <g id="legend_1">
    <g id="LineCollection_25">
     <path d="M 76.5 281.915851 
L 83.5 281.915851 
" style="fill: none; stroke: #3c8fa4; stroke-width: 1.15"/>
    </g>
    <g id="line2d_97">
     <g>
      <use xlink:href="#mb77acc4b00" x="76.5" y="281.915851" style="fill: #3c8fa4; stroke: #3c8fa4"/>
     </g>
    </g>
    <g id="line2d_98">
     <g>
      <use xlink:href="#mb77acc4b00" x="83.5" y="281.915851" style="fill: #3c8fa4; stroke: #3c8fa4"/>
     </g>
    </g>
    <g id="line2d_99"/>
    <g id="line2d_100">
     <g>
      <use xlink:href="#m94f4504924" x="80" y="281.915851" style="fill: #3c8fa4; stroke: #3c8fa4"/>
     </g>
    </g>
    <g id="text_19">
     <!-- Full proxy -->
     <g transform="translate(90.15 284.365851) scale(0.07 -0.07)">
      <defs>
       <path id="TimesNewRomanPSMT-46" d="M 1309 4006 
L 1309 2341 
L 2081 2341 
Q 2347 2341 2470 2458 
Q 2594 2575 2634 2922 
L 2750 2922 
L 2750 1488 
L 2634 1488 
Q 2631 1734 2570 1850 
Q 2509 1966 2401 2023 
Q 2294 2081 2081 2081 
L 1309 2081 
L 1309 750 
Q 1309 428 1350 325 
Q 1381 247 1481 191 
Q 1619 116 1769 116 
L 1922 116 
L 1922 0 
L 103 0 
L 103 116 
L 253 116 
Q 516 116 634 269 
Q 709 369 709 750 
L 709 3488 
Q 709 3809 669 3913 
Q 638 3991 541 4047 
Q 406 4122 253 4122 
L 103 4122 
L 103 4238 
L 3256 4238 
L 3297 3306 
L 3188 3306 
Q 3106 3603 2998 3742 
Q 2891 3881 2733 3943 
Q 2575 4006 2244 4006 
L 1309 4006 
z
" transform="scale(0.015625)"/>
       <path id="TimesNewRomanPSMT-70" d="M -6 2578 
L 875 2934 
L 994 2934 
L 994 2266 
Q 1216 2644 1439 2795 
Q 1663 2947 1909 2947 
Q 2341 2947 2628 2609 
Q 2981 2197 2981 1534 
Q 2981 794 2556 309 
Q 2206 -88 1675 -88 
Q 1444 -88 1275 -22 
Q 1150 25 994 166 
L 994 -706 
Q 994 -1000 1030 -1079 
Q 1066 -1159 1155 -1206 
Q 1244 -1253 1478 -1253 
L 1478 -1369 
L -22 -1369 
L -22 -1253 
L 56 -1253 
Q 228 -1256 350 -1188 
Q 409 -1153 442 -1076 
Q 475 -1000 475 -688 
L 475 2019 
Q 475 2297 450 2372 
Q 425 2447 370 2484 
Q 316 2522 222 2522 
Q 147 2522 31 2478 
L -6 2578 
z
M 994 2081 
L 994 1013 
Q 994 666 1022 556 
Q 1066 375 1236 237 
Q 1406 100 1666 100 
Q 1978 100 2172 344 
Q 2425 663 2425 1241 
Q 2425 1897 2138 2250 
Q 1938 2494 1663 2494 
Q 1513 2494 1366 2419 
Q 1253 2363 994 2081 
z
" transform="scale(0.015625)"/>
       <path id="TimesNewRomanPSMT-78" d="M 84 2863 
L 1431 2863 
L 1431 2747 
Q 1303 2747 1251 2703 
Q 1200 2659 1200 2588 
Q 1200 2513 1309 2356 
Q 1344 2306 1413 2200 
L 1616 1875 
L 1850 2200 
Q 2075 2509 2075 2591 
Q 2075 2656 2022 2701 
Q 1969 2747 1850 2747 
L 1850 2863 
L 2819 2863 
L 2819 2747 
Q 2666 2738 2553 2663 
Q 2400 2556 2134 2200 
L 1744 1678 
L 2456 653 
Q 2719 275 2831 198 
Q 2944 122 3122 113 
L 3122 0 
L 1772 0 
L 1772 113 
Q 1913 113 1991 175 
Q 2050 219 2050 291 
Q 2050 363 1850 653 
L 1431 1266 
L 972 653 
Q 759 369 759 316 
Q 759 241 829 180 
Q 900 119 1041 113 
L 1041 0 
L 106 0 
L 106 113 
Q 219 128 303 191 
Q 422 281 703 653 
L 1303 1450 
L 759 2238 
Q 528 2575 401 2661 
Q 275 2747 84 2747 
L 84 2863 
z
" transform="scale(0.015625)"/>
      </defs>
      <use xlink:href="#TimesNewRomanPSMT-46"/>
      <use xlink:href="#TimesNewRomanPSMT-75" x="55.615234"/>
      <use xlink:href="#TimesNewRomanPSMT-6c" x="105.615234"/>
      <use xlink:href="#TimesNewRomanPSMT-6c" x="133.398438"/>
      <use xlink:href="#TimesNewRomanPSMT-20" x="161.181641"/>
      <use xlink:href="#TimesNewRomanPSMT-70" x="186.181641"/>
      <use xlink:href="#TimesNewRomanPSMT-72" x="236.181641"/>
      <use xlink:href="#TimesNewRomanPSMT-6f" x="269.482422"/>
      <use xlink:href="#TimesNewRomanPSMT-78" x="319.482422"/>
      <use xlink:href="#TimesNewRomanPSMT-79" x="369.482422"/>
     </g>
    </g>
    <g id="LineCollection_26">
     <path d="M 130.012812 281.915851 
L 137.012812 281.915851 
" style="fill: none; stroke: #c96f5f; stroke-width: 1.05"/>
    </g>
    <g id="line2d_101">
     <g>
      <use xlink:href="#m29a6609e41" x="130.012812" y="281.915851" style="fill: #c96f5f; stroke: #c96f5f; stroke-width: 1.15"/>
     </g>
    </g>
    <g id="line2d_102">
     <g>
      <use xlink:href="#m29a6609e41" x="137.012812" y="281.915851" style="fill: #c96f5f; stroke: #c96f5f; stroke-width: 1.15"/>
     </g>
    </g>
    <g id="line2d_103"/>
    <g id="line2d_104">
     <g>
      <use xlink:href="#m1ebc9222e1" x="133.512812" y="281.915851" style="fill: #ffffff; stroke: #c96f5f; stroke-width: 1.15; stroke-linejoin: miter"/>
     </g>
    </g>
    <g id="text_20">
     <!-- Without relevance -->
     <g transform="translate(143.662813 284.365851) scale(0.07 -0.07)">
      <defs>
       <path id="TimesNewRomanPSMT-57" d="M 5991 4238 
L 5991 4122 
Q 5825 4122 5722 4062 
Q 5619 4003 5525 3841 
Q 5463 3731 5328 3319 
L 4147 -97 
L 4022 -97 
L 3056 2613 
L 2097 -97 
L 1984 -97 
L 725 3422 
Q 584 3816 547 3888 
Q 484 4006 376 4064 
Q 269 4122 84 4122 
L 84 4238 
L 1653 4238 
L 1653 4122 
L 1578 4122 
Q 1413 4122 1325 4047 
Q 1238 3972 1238 3866 
Q 1238 3756 1375 3363 
L 2209 984 
L 2913 3006 
L 2788 3363 
L 2688 3647 
Q 2622 3803 2541 3922 
Q 2500 3981 2441 4022 
Q 2363 4078 2284 4103 
Q 2225 4122 2097 4122 
L 2097 4238 
L 3747 4238 
L 3747 4122 
L 3634 4122 
Q 3459 4122 3378 4047 
Q 3297 3972 3297 3844 
Q 3297 3684 3438 3288 
L 4250 984 
L 5056 3319 
Q 5194 3706 5194 3856 
Q 5194 3928 5148 3990 
Q 5103 4053 5034 4078 
Q 4916 4122 4725 4122 
L 4725 4238 
L 5991 4238 
z
" transform="scale(0.015625)"/>
       <path id="TimesNewRomanPSMT-68" d="M 1041 4444 
L 1041 2350 
Q 1388 2731 1591 2839 
Q 1794 2947 1997 2947 
Q 2241 2947 2416 2812 
Q 2591 2678 2675 2391 
Q 2734 2191 2734 1659 
L 2734 647 
Q 2734 375 2778 275 
Q 2809 200 2884 156 
Q 2959 113 3159 113 
L 3159 0 
L 1753 0 
L 1753 113 
L 1819 113 
Q 2019 113 2097 173 
Q 2175 234 2206 353 
Q 2216 403 2216 647 
L 2216 1659 
Q 2216 2128 2167 2275 
Q 2119 2422 2012 2495 
Q 1906 2569 1756 2569 
Q 1603 2569 1437 2487 
Q 1272 2406 1041 2159 
L 1041 647 
Q 1041 353 1073 281 
Q 1106 209 1195 161 
Q 1284 113 1503 113 
L 1503 0 
L 84 0 
L 84 113 
Q 275 113 384 172 
Q 447 203 484 290 
Q 522 378 522 647 
L 522 3238 
Q 522 3728 498 3840 
Q 475 3953 426 3993 
Q 378 4034 297 4034 
Q 231 4034 84 3984 
L 41 4094 
L 897 4444 
L 1041 4444 
z
" transform="scale(0.015625)"/>
      </defs>
      <use xlink:href="#TimesNewRomanPSMT-57"/>
      <use xlink:href="#TimesNewRomanPSMT-69" x="90.384766"/>
      <use xlink:href="#TimesNewRomanPSMT-74" x="118.167969"/>
      <use xlink:href="#TimesNewRomanPSMT-68" x="145.951172"/>
      <use xlink:href="#TimesNewRomanPSMT-6f" x="195.951172"/>
      <use xlink:href="#TimesNewRomanPSMT-75" x="245.951172"/>
      <use xlink:href="#TimesNewRomanPSMT-74" x="295.951172"/>
      <use xlink:href="#TimesNewRomanPSMT-20" x="323.734375"/>
      <use xlink:href="#TimesNewRomanPSMT-72" x="348.734375"/>
      <use xlink:href="#TimesNewRomanPSMT-65" x="382.035156"/>
      <use xlink:href="#TimesNewRomanPSMT-6c" x="426.419922"/>
      <use xlink:href="#TimesNewRomanPSMT-65" x="454.203125"/>
      <use xlink:href="#TimesNewRomanPSMT-76" x="498.587891"/>
      <use xlink:href="#TimesNewRomanPSMT-61" x="548.587891"/>
      <use xlink:href="#TimesNewRomanPSMT-6e" x="592.972656"/>
      <use xlink:href="#TimesNewRomanPSMT-63" x="642.972656"/>
      <use xlink:href="#TimesNewRomanPSMT-65" x="687.357422"/>
     </g>
    </g>
   </g>
  </g>
 </g>
 <defs>
  <clipPath id="pfc9d12aca4">
   <rect x="66.7" y="16.90592" width="159.192" height="233.28"/>
  </clipPath>
 </defs>
</svg>
